<?xml version="1.0" encoding="iso-8859-1"?>
<!-- Generator: Adobe Illustrator 19.0.0, SVG Export Plug-In . SVG Version: 6.00 Build 0)  -->
<svg version="1.1" id="Layer_1" xmlns="http://www.w3.org/2000/svg" xmlns:xlink="http://www.w3.org/1999/xlink" x="0px" y="0px"
	 viewBox="0 0 512 512" style="enable-background:new 0 0 512 512;" xml:space="preserve">
<g>
	<g>
		<path d="M384.903,0H127.097C98.139,0,74.581,23.558,74.581,52.516v406.968c0,28.958,23.558,52.516,52.516,52.516h257.806
			c28.958,0,52.516-23.558,52.516-52.516V52.516C437.419,23.558,413.861,0,384.903,0z M416.774,459.484
			c0,17.573-14.298,31.871-31.871,31.871H127.097c-17.573,0-31.871-14.298-31.871-31.871v-29.032h321.548V459.484z M416.774,409.806
			H95.226V52.516c0-17.573,14.298-31.871,31.871-31.871h257.806c17.573,0,31.871,14.298,31.871,31.871V409.806z"/>
	</g>
</g>
<g>
	<g>
		<path d="M256,434.581c-14.23,0-25.806,11.577-25.806,25.806S241.77,486.194,256,486.194c14.23,0,25.806-11.577,25.806-25.806
			S270.23,434.581,256,434.581z M256,465.548c-2.846,0-5.161-2.315-5.161-5.161s2.315-5.161,5.161-5.161
			c2.846,0,5.161,2.315,5.161,5.161S258.846,465.548,256,465.548z"/>
	</g>
</g>
<g>
	<g>
		<path d="M117.419,249.806c-5.701,0-10.323,4.621-10.323,10.323v126.968c0,5.701,4.621,10.323,10.323,10.323
			s10.323-4.621,10.323-10.323V260.129C127.742,254.428,123.121,249.806,117.419,249.806z"/>
	</g>
</g>
<g>
	<g>
		<path d="M117.419,207.484c-5.701,0-10.323,4.621-10.323,10.323v10.323c0,5.701,4.621,10.323,10.323,10.323
			s10.323-4.621,10.323-10.323v-10.323C127.742,212.105,123.121,207.484,117.419,207.484z"/>
	</g>
</g>
<g>
</g>
<g>
</g>
<g>
</g>
<g>
</g>
<g>
</g>
<g>
</g>
<g>
</g>
<g>
</g>
<g>
</g>
<g>
</g>
<g>
</g>
<g>
</g>
<g>
</g>
<g>
</g>
<g>
</g>
</svg>
